<?xml version="1.0" standalone="no"?>
<!DOCTYPE svg PUBLIC "-//W3C//DTD SVG 20010904//EN"
 "http://www.w3.org/TR/2001/REC-SVG-20010904/DTD/svg10.dtd">
<svg version="1.0" xmlns="http://www.w3.org/2000/svg"
 width="500.000000pt" height="500.000000pt" viewBox="0 0 500.000000 500.000000"
 preserveAspectRatio="xMidYMid meet">
<metadata>
Created by potrace 1.11, written by Peter Selinger 2001-2013
</metadata>
<g transform="translate(0.000000,500.000000) scale(0.100000,-0.100000)"
fill="#000000" stroke="none">
<path d="M330 2500 l0 -580 2140 0 2140 0 0 580 0 580 -2140 0 -2140 0 0 -580z
m4150 5 l0 -475 -2025 0 -2025 0 0 475 0 475 2025 0 2025 0 0 -475z"/>
<path d="M840 2500 l0 -110 35 0 c35 0 35 0 35 45 l0 45 40 0 c33 0 40 3 40
19 0 16 -8 20 -37 23 -27 2 -39 8 -41 21 -3 14 4 17 47 17 48 0 51 2 51 25 0
25 -1 25 -85 25 l-85 0 0 -110z"/>
<path d="M1040 2590 c0 -16 7 -20 30 -20 23 0 30 4 30 20 0 16 -7 20 -30 20
-23 0 -30 -4 -30 -20z"/>
<path d="M1470 2500 l0 -110 73 0 c92 0 121 14 125 60 3 23 -2 38 -13 46 -10
8 -12 14 -6 19 6 3 11 22 11 40 0 45 -20 55 -114 55 l-76 0 0 -110z m126 49
c8 -13 -15 -30 -36 -26 -8 1 -16 10 -18 20 -3 12 3 17 22 17 14 0 28 -5 32
-11z m7 -75 c13 -14 -7 -34 -34 -34 -22 0 -29 5 -29 20 0 15 7 20 28 20 16 0
31 -3 35 -6z"/>
<path d="M1767 2603 c-8 -13 -77 -197 -77 -205 0 -5 15 -8 34 -8 25 0 35 5 39
20 4 15 14 20 40 20 27 0 37 -5 42 -20 5 -15 15 -20 41 -20 19 0 34 3 34 8 0
4 -17 52 -38 107 -38 100 -38 100 -74 103 -20 2 -38 -1 -41 -5z m52 -110 c1
-7 -8 -13 -18 -13 -18 0 -19 3 -9 32 10 28 12 30 19 12 4 -10 8 -25 8 -31z"/>
<path d="M1962 2594 c-27 -19 -29 -64 -4 -87 10 -9 33 -20 50 -23 40 -8 62
-32 41 -45 -21 -13 -27 -11 -41 11 -9 13 -24 20 -45 20 -41 0 -43 -20 -8 -55
19 -20 34 -25 72 -25 56 0 88 18 97 56 10 39 -16 72 -69 85 -50 13 -65 26 -40
35 9 4 24 -1 34 -10 13 -12 27 -15 45 -10 31 7 33 17 6 44 -25 25 -105 27
-138 4z"/>
<path d="M2160 2500 l0 -110 90 0 c89 0 90 0 90 25 0 24 -3 25 -55 25 -48 0
-55 2 -55 20 0 17 7 20 50 20 47 0 50 2 50 25 0 23 -3 25 -50 25 -38 0 -50 4
-50 15 0 12 13 15 55 15 52 0 55 1 55 25 0 25 -1 25 -90 25 l-90 0 0 -110z"/>
<path d="M2522 2583 c-5 -16 -24 -65 -41 -110 l-30 -83 35 0 c27 0 37 5 41 20
4 16 14 20 43 20 29 0 39 -4 43 -20 4 -15 14 -20 41 -20 l35 0 -30 83 c-17 45
-36 94 -41 110 -8 23 -16 27 -48 27 -32 0 -40 -4 -48 -27z m58 -62 c0 -5 3
-16 6 -25 4 -12 0 -16 -16 -16 -16 0 -20 4 -16 16 3 9 6 20 6 25 0 5 5 9 10 9
6 0 10 -4 10 -9z"/>
<path d="M2910 2500 l0 -110 30 0 30 0 0 110 0 110 -30 0 -30 0 0 -110z"/>
<path d="M3010 2590 c0 -16 7 -20 30 -20 23 0 30 4 30 20 0 16 -7 20 -30 20
-23 0 -30 -4 -30 -20z"/>
<path d="M3548 2594 c-16 -8 -28 -21 -28 -29 0 -8 -4 -15 -10 -15 -5 0 -10
-11 -10 -25 0 -14 5 -25 10 -25 6 0 10 -19 10 -43 0 -52 13 -67 57 -67 28 0
33 3 33 25 0 18 -4 23 -15 19 -12 -5 -15 2 -15 30 0 25 4 36 15 36 9 0 15 9
15 25 0 15 -6 25 -14 25 -9 0 -16 12 -18 29 -3 29 -4 29 -30 15z"/>
<path d="M3640 2590 c0 -16 7 -20 30 -20 23 0 30 4 30 20 0 16 -7 20 -30 20
-23 0 -30 -4 -30 -20z"/>
<path d="M1040 2470 l0 -80 30 0 30 0 0 80 0 80 -30 0 -30 0 0 -80z"/>
<path d="M1140 2469 l0 -79 29 0 c29 0 30 2 33 52 2 44 7 53 23 57 11 2 23 8
27 15 18 27 7 34 -52 34 l-60 0 0 -79z"/>
<path d="M1291 2533 c-12 -10 -24 -35 -27 -55 -5 -30 -2 -41 19 -62 31 -31 99
-36 135 -10 34 24 17 37 -39 29 -42 -6 -49 -4 -49 10 0 14 9 16 55 13 54 -3
55 -3 55 25 0 15 -9 36 -20 47 -26 26 -99 27 -129 3z m83 -44 c-7 -13 -31 -11
-40 2 -9 16 18 30 33 17 7 -6 10 -14 7 -19z"/>
<path d="M2710 2439 l0 -109 30 0 c27 0 30 3 30 33 0 31 2 33 33 29 17 -2 40
3 50 10 24 18 32 85 15 118 -12 23 -20 25 -86 27 l-72 1 0 -109z m100 56 c17
-20 8 -50 -15 -50 -20 0 -31 25 -21 51 7 18 20 18 36 -1z"/>
<path d="M3010 2470 l0 -80 30 0 30 0 0 80 0 80 -30 0 -30 0 0 -80z"/>
<path d="M3120 2530 c-28 -28 -27 -93 2 -120 32 -29 107 -28 136 3 12 13 22
26 22 30 0 11 -49 8 -69 -5 -38 -23 -70 34 -36 62 13 11 20 11 40 0 17 -9 31
-10 45 -4 l21 9 -21 23 c-28 30 -111 31 -140 2z"/>
<path d="M3317 2532 c-10 -10 -17 -22 -17 -25 0 -12 65 -8 78 5 9 9 15 9 24 0
8 -8 5 -14 -16 -22 -15 -5 -35 -10 -45 -10 -23 0 -41 -20 -41 -46 0 -34 19
-42 100 -42 l75 0 -5 70 c-6 80 -13 88 -86 88 -37 0 -55 -5 -67 -18z m93 -81
c0 -5 -7 -14 -15 -21 -12 -10 -19 -10 -28 -1 -9 9 -9 14 3 21 19 12 40 13 40
1z"/>
<path d="M3640 2470 l0 -80 30 0 30 0 0 80 0 80 -30 0 -30 0 0 -80z"/>
<path d="M3755 2525 c-54 -53 -15 -135 65 -135 77 0 116 74 69 134 -29 36 -99
37 -134 1z m83 -27 c28 -28 -3 -83 -33 -58 -8 7 -15 20 -15 29 0 17 18 41 30
41 3 0 11 -5 18 -12z"/>
<path d="M3940 2469 l0 -79 29 0 c29 0 30 2 33 52 2 41 7 54 21 56 14 3 17 -5
17 -52 0 -56 0 -56 30 -56 l30 0 0 69 c0 43 -5 72 -13 79 -7 6 -43 10 -80 10
l-67 0 0 -79z"/>
<path d="M4720 2108 c-45 -48 -9 -128 57 -128 36 0 73 38 73 75 0 12 -9 34
-21 49 -27 34 -79 36 -109 4z m104 -10 c22 -31 20 -64 -4 -88 -58 -58 -142 20
-94 88 10 15 25 22 49 22 24 0 39 -7 49 -22z"/>
<path d="M4740 2056 c0 -25 5 -46 10 -46 6 0 10 9 10 20 0 11 5 20 11 20 6 0
13 -9 16 -20 9 -35 21 -21 20 23 -2 40 -4 42 -34 45 -33 3 -33 3 -33 -42z m50
19 c0 -8 -7 -15 -15 -15 -8 0 -15 7 -15 15 0 8 7 15 15 15 8 0 15 -7 15 -15z"/>
</g>
</svg>
